<svg xmlns="http://www.w3.org/2000/svg" viewBox="0 0 24 30" x="0px" y="0px"><g fill="#000000" stroke="none"><path d="M3.000 14.000 l0.000 -6.000 1.000 0.000 1.000 0.000 0.000 5.000 0.000 5.000 7.000 0.000 7.000 0.000 0.000 -5.000 0.000 -5.000 1.000 0.000 1.000 0.000 0.000 6.000 0.000 6.000 -9.000 0.000 -9.000 0.000 0.000 -6.000z M7.000 15.000 l0.000 -1.000 1.000 0.000 1.000 0.000 0.000 1.000 0.000 1.000 -1.000 0.000 -1.000 0.000 0.000 -1.000z M11.000 15.000 l0.000 -1.000 1.000 0.000 1.000 0.000 0.000 1.000 0.000 1.000 -1.000 0.000 -1.000 0.000 0.000 -1.000z M15.000 15.000 l0.000 -1.000 1.000 0.000 1.000 0.000 0.000 1.000 0.000 1.000 -1.000 0.000 -1.000 0.000 0.000 -1.000z M9.000 11.000 l0.000 -1.000 1.000 0.000 1.000 0.000 0.000 1.000 0.000 1.000 -1.000 0.000 -1.000 0.000 0.000 -1.000z M13.000 11.000 l0.000 -1.000 1.000 0.000 1.000 0.000 0.000 1.000 0.000 1.000 -1.000 0.000 -1.000 0.000 0.000 -1.000z M9.500 5.500 l-2.490 -2.500 4.990 0.000 4.990 0.000 -2.490 2.490 c-1.370 1.380 -2.500 2.500 -2.500 2.500 0.000 0.000 -1.130 -1.120 -2.500 -2.490z "/></g><text x="0" y="39" fill="#000000" font-size="5px" font-weight="bold" font-family="'Helvetica Neue', Helvetica, Arial-Unicode, Arial, Sans-serif">Created by TooJooGoo</text><text x="0" y="44" fill="#000000" font-size="5px" font-weight="bold" font-family="'Helvetica Neue', Helvetica, Arial-Unicode, Arial, Sans-serif">from the Noun Project</text></svg>